<svg width="125" height="74" viewBox="0 0 125 74" fill="none" xmlns="http://www.w3.org/2000/svg">
<path d="M27.9144 54.5518C27.3544 54.5518 26.7877 54.4651 26.2144 54.2918C25.641 54.1185 25.1344 53.8651 24.6944 53.5318C24.2544 53.1985 23.961 52.7985 23.8144 52.3318H24.2544V54.3518H22.0144V50.4118H24.0144C24.201 50.8518 24.4544 51.2385 24.7744 51.5718C25.0944 51.9051 25.4677 52.1651 25.8944 52.3518C26.321 52.5385 26.7944 52.6318 27.3144 52.6318C27.7544 52.6318 28.101 52.5385 28.3544 52.3518C28.621 52.1518 28.7544 51.8585 28.7544 51.4718C28.7544 51.1918 28.6944 50.9651 28.5744 50.7918C28.4544 50.6051 28.2544 50.4585 27.9744 50.3518C27.7077 50.2318 27.3544 50.1251 26.9144 50.0318L25.5944 49.7718C24.3544 49.5051 23.4277 49.0718 22.8144 48.4718C22.2144 47.8718 21.9144 47.0585 21.9144 46.0318C21.9144 45.3518 22.0744 44.7518 22.3944 44.2318C22.7144 43.7118 23.161 43.3118 23.7344 43.0318C24.321 42.7385 25.001 42.5918 25.7744 42.5918C26.681 42.5918 27.461 42.7518 28.1144 43.0718C28.7677 43.3918 29.2944 43.8518 29.6944 44.4518H29.2344V42.7918H31.3344V46.1718H29.4144C29.281 45.9051 29.0877 45.6451 28.8344 45.3918C28.5944 45.1385 28.2944 44.9318 27.9344 44.7718C27.5744 44.5985 27.141 44.5118 26.6344 44.5118C26.2077 44.5118 25.8744 44.6051 25.6344 44.7918C25.3944 44.9651 25.2744 45.2185 25.2744 45.5518C25.2744 45.9251 25.441 46.2185 25.7744 46.4318C26.1077 46.6451 26.6477 46.8251 27.3944 46.9718L28.0944 47.1118C28.9744 47.2718 29.6944 47.5118 30.2544 47.8318C30.8144 48.1385 31.2277 48.5451 31.4944 49.0518C31.7744 49.5451 31.9144 50.1585 31.9144 50.8918C31.9144 51.6518 31.7477 52.3051 31.4144 52.8518C31.081 53.3851 30.6144 53.8051 30.0144 54.1118C29.4277 54.4051 28.7277 54.5518 27.9144 54.5518ZM39.5308 54.5718C38.6374 54.5718 37.8574 54.3985 37.1908 54.0518C36.5241 53.6918 36.0041 53.1918 35.6308 52.5518C35.2574 51.9118 35.0708 51.1718 35.0708 50.3318C35.0708 49.4918 35.2574 48.7585 35.6308 48.1318C36.0041 47.5051 36.5241 47.0185 37.1908 46.6718C37.8574 46.3118 38.6374 46.1318 39.5308 46.1318C40.4241 46.1318 41.2041 46.3118 41.8708 46.6718C42.5374 47.0185 43.0574 47.5051 43.4308 48.1318C43.8041 48.7585 43.9908 49.4918 43.9908 50.3318C43.9908 51.1718 43.8041 51.9118 43.4308 52.5518C43.0574 53.1918 42.5374 53.6918 41.8708 54.0518C41.2041 54.3985 40.4241 54.5718 39.5308 54.5718ZM39.5308 52.3318C39.8774 52.3318 40.1774 52.2518 40.4308 52.0918C40.6974 51.9318 40.8974 51.7051 41.0308 51.4118C41.1641 51.1051 41.2308 50.7451 41.2308 50.3318C41.2308 49.9185 41.1641 49.5651 41.0308 49.2718C40.8974 48.9785 40.6974 48.7518 40.4308 48.5918C40.1774 48.4318 39.8774 48.3518 39.5308 48.3518C39.1708 48.3518 38.8641 48.4318 38.6108 48.5918C38.3708 48.7518 38.1774 48.9785 38.0308 49.2718C37.8974 49.5651 37.8308 49.9185 37.8308 50.3318C37.8308 50.7451 37.8974 51.1051 38.0308 51.4118C38.1774 51.7051 38.3708 51.9318 38.6108 52.0918C38.8641 52.2518 39.1708 52.3318 39.5308 52.3318ZM46.6792 54.3518V52.5918H47.7192V44.3518H46.6792V42.5918H50.6392V52.5918H51.6192V54.3518H46.6792ZM57.1666 54.5518C56.3532 54.5518 55.7066 54.3385 55.2266 53.9118C54.7466 53.4851 54.5066 52.9185 54.5066 52.2118C54.5066 51.6118 54.6532 51.1318 54.9466 50.7718C55.2532 50.3985 55.6466 50.1318 56.1266 49.9718C56.6199 49.8118 57.1399 49.7318 57.6866 49.7318C58.1399 49.7318 58.5599 49.7718 58.9466 49.8518C59.3332 49.9318 59.6532 50.0318 59.9066 50.1518L59.4466 50.2518V49.5918C59.4466 49.0851 59.3132 48.7118 59.0466 48.4718C58.7932 48.2185 58.4199 48.0918 57.9266 48.0918C57.5532 48.0918 57.1532 48.1451 56.7266 48.2518C56.3132 48.3585 55.8332 48.5318 55.2866 48.7718L54.6266 47.0718C55.2932 46.7651 55.9599 46.5385 56.6266 46.3918C57.2932 46.2318 57.9666 46.1518 58.6466 46.1518C59.4332 46.1518 60.0999 46.2851 60.6466 46.5518C61.2066 46.8051 61.6266 47.1785 61.9066 47.6718C62.1999 48.1518 62.3466 48.7318 62.3466 49.4118V52.5918H63.3066V54.3518H59.9066L59.5066 53.1118H60.2266C59.7866 53.5918 59.3199 53.9518 58.8266 54.1918C58.3332 54.4318 57.7799 54.5518 57.1666 54.5518ZM58.1866 53.0118C58.4666 53.0118 58.7466 52.9451 59.0266 52.8118C59.3066 52.6785 59.5732 52.4585 59.8266 52.1518L59.4466 52.8918V50.9518L59.8266 51.3718C59.6399 51.2651 59.4199 51.1785 59.1666 51.1118C58.9266 51.0451 58.6599 51.0118 58.3666 51.0118C58.0466 51.0118 57.7599 51.0918 57.5066 51.2518C57.2666 51.3985 57.1466 51.6585 57.1466 52.0318C57.1466 52.3385 57.2332 52.5785 57.4066 52.7518C57.5932 52.9251 57.8532 53.0118 58.1866 53.0118ZM65.9545 54.3518V52.5918H66.9945V48.0918H65.9545V46.3518H69.9545V48.8118L69.6145 48.8318C69.8279 48.1251 70.0679 47.5851 70.3345 47.2118C70.6145 46.8251 70.9079 46.5585 71.2145 46.4118C71.5345 46.2518 71.8479 46.1718 72.1545 46.1718C72.4345 46.1718 72.7012 46.2051 72.9545 46.2718C73.2079 46.3251 73.4479 46.4118 73.6745 46.5318L73.0545 48.9318C72.8545 48.8118 72.6079 48.7118 72.3145 48.6318C72.0345 48.5518 71.7345 48.5118 71.4145 48.5118C71.0812 48.5118 70.7545 48.6118 70.4345 48.8118C70.1145 49.0118 69.9545 49.3518 69.9545 49.8318V52.5918H71.0945V54.3518H65.9545Z" fill="url(#paint0_radial_51_8)"/>
<circle cx="31.3458" cy="16.84" r="16.5948" fill="url(#paint1_linear_51_8)"/>
<path d="M119.217 60.3355C117.963 63.6423 113.962 65.2913 110.282 64.0187C106.602 62.7461 104.636 59.0338 105.891 55.727C107.145 52.4202 111.146 50.7712 114.826 52.0438C118.506 53.3164 120.472 57.0287 119.217 60.3355Z" fill="url(#paint2_linear_51_8)"/>
<path d="M116.065 48.7779C114.81 52.0847 110.81 53.7337 107.13 52.4611C103.45 51.1885 26.6008 21.581 27.8555 18.2742C29.1101 14.9674 107.993 39.2136 111.673 40.4862C115.353 41.7588 117.32 45.4711 116.065 48.7779Z" fill="white"/>
<defs>
<radialGradient id="paint0_radial_51_8" cx="0" cy="0" r="1" gradientUnits="userSpaceOnUse" gradientTransform="translate(49.7845 46.3419) rotate(33.2614) scale(68.3587 181.504)">
<stop stop-color="#9AE0D3"/>
<stop offset="1" stop-color="#1F2525"/>
</radialGradient>
<linearGradient id="paint1_linear_51_8" x1="31.3458" y1="0.245178" x2="31.3458" y2="33.4348" gradientUnits="userSpaceOnUse">
<stop stop-color="#FCA92C"/>
<stop offset="1" stop-color="#FCA92C" stop-opacity="0"/>
</linearGradient>
<linearGradient id="paint2_linear_51_8" x1="77.5636" y1="28.6907" x2="68.9391" y2="51.986" gradientUnits="userSpaceOnUse">
<stop stop-color="#9AE0D3"/>
<stop offset="1" stop-color="#9AE0D3" stop-opacity="0"/>
</linearGradient>
</defs>
</svg>
